<?xml version="1.0" standalone="no"?>
<!DOCTYPE svg PUBLIC "-//W3C//DTD SVG 20010904//EN"
 "http://www.w3.org/TR/2001/REC-SVG-20010904/DTD/svg10.dtd">
<svg version="1.0" xmlns="http://www.w3.org/2000/svg"
 width="560.000000pt" height="560.000000pt" viewBox="0 0 560.000000 560.000000"
 preserveAspectRatio="xMidYMid meet">
<metadata>
Created by potrace 1.14, written by Peter Selinger 2001-2017
</metadata>
<g transform="translate(0.000000,560.000000) scale(0.100000,-0.100000)"
fill="#000000" stroke="none">
<path d="M0 2800 l0 -2800 880 0 c538 0 880 4 880 9 0 5 -9 13 -21 16 -22 7
-299 279 -299 293 0 5 -14 23 -30 40 -17 18 -30 36 -30 42 0 5 -4 10 -10 10
-5 0 -10 5 -10 10 0 6 -9 20 -20 32 -11 12 -20 28 -20 35 0 7 -4 13 -10 13 -5
0 -10 7 -10 15 0 8 -4 15 -10 15 -5 0 -10 7 -10 15 0 8 -4 15 -10 15 -5 0 -10
7 -10 15 0 8 -4 15 -8 15 -5 0 -14 16 -22 35 -8 19 -17 35 -22 35 -4 0 -8 9
-8 20 0 11 -4 20 -10 20 -5 0 -10 9 -10 20 0 11 -4 20 -10 20 -5 0 -10 9 -10
20 0 11 -4 20 -10 20 -5 0 -10 9 -10 20 0 11 -4 20 -10 20 -5 0 -10 9 -10 20
0 11 -4 20 -10 20 -5 0 -10 9 -10 20 0 11 -4 20 -10 20 -5 0 -10 14 -10 30 0
17 -4 30 -10 30 -5 0 -10 9 -10 20 0 11 -4 20 -10 20 -5 0 -10 14 -10 30 0 17
-4 30 -10 30 -5 0 -10 11 -10 25 0 14 -4 25 -10 25 -5 0 -10 14 -10 30 0 17
-4 30 -10 30 -5 0 -10 13 -10 29 0 17 -5 33 -10 36 -6 3 -10 19 -10 36 0 16
-4 29 -10 29 -5 0 -10 16 -10 35 0 19 -4 35 -10 35 -5 0 -10 18 -10 40 0 22
-4 40 -10 40 -5 0 -10 20 -10 45 0 25 -4 45 -10 45 -5 0 -10 20 -10 45 0 25
-4 45 -10 45 -5 0 -10 23 -10 50 0 28 -4 50 -10 50 -6 0 -10 28 -10 65 0 37
-4 65 -10 65 -6 0 -10 30 -10 70 0 40 -4 70 -10 70 -6 0 -10 40 -10 100 0 60
-4 100 -10 100 -6 0 -10 48 -10 124 0 73 -4 127 -10 131 -14 8 -14 672 0 680
6 4 10 63 10 146 0 86 4 139 10 139 6 0 10 38 10 95 0 57 4 95 10 95 6 0 10
30 10 70 0 40 4 70 10 70 6 0 10 27 10 60 0 33 4 60 10 60 6 0 10 25 10 55 0
30 5 55 10 55 6 0 10 20 10 45 0 25 5 45 10 45 6 0 10 20 10 45 0 25 5 45 10
45 6 0 10 18 10 40 0 22 5 40 10 40 6 0 10 14 10 30 0 17 5 30 10 30 6 0 10
16 10 35 0 19 5 35 10 35 6 0 10 14 10 30 0 17 5 30 10 30 6 0 10 14 10 30 0
17 5 30 10 30 6 0 10 11 10 25 0 14 5 25 10 25 6 0 10 14 10 30 0 17 5 30 10
30 6 0 10 12 10 26 0 14 4 23 10 19 6 -3 10 5 10 19 0 14 5 28 10 31 6 3 10
15 10 26 0 10 5 19 10 19 6 0 10 9 10 20 0 11 5 20 10 20 6 0 10 9 10 20 0 11
5 20 10 20 6 0 10 9 10 20 0 11 5 20 10 20 6 0 10 9 10 20 0 11 5 20 10 20 6
0 10 9 10 20 0 11 5 20 10 20 6 0 10 9 10 20 0 11 5 20 10 20 6 0 10 7 10 15
0 8 5 15 10 15 6 0 10 7 10 15 0 8 5 15 10 15 6 0 10 7 10 15 0 8 5 15 10 15
6 0 10 7 10 15 0 8 5 15 10 15 6 0 10 7 10 15 0 8 5 15 10 15 6 0 10 7 10 15
0 8 5 15 10 15 6 0 10 7 10 15 0 8 5 15 10 15 6 0 10 5 10 11 0 6 13 24 30 39
17 15 30 33 30 39 0 16 275 288 299 296 12 3 21 11 21 16 0 5 -342 9 -880 9
l-880 0 0 -2800z"/>
<path d="M3960 5594 c0 -10 28 -34 39 -34 14 0 261 -246 261 -260 0 -5 5 -10
10 -10 6 0 10 -5 10 -11 0 -6 14 -24 30 -39 17 -15 30 -34 30 -42 0 -7 9 -20
20 -28 11 -8 20 -23 20 -33 0 -10 5 -15 10 -12 6 3 10 -1 10 -9 0 -9 5 -16 10
-16 6 0 10 -8 10 -18 0 -10 9 -24 20 -32 11 -8 20 -22 20 -32 0 -10 5 -18 10
-18 6 0 10 -9 10 -21 0 -11 5 -17 10 -14 6 3 10 -3 10 -14 0 -12 5 -21 10 -21
6 0 10 -7 10 -15 0 -8 5 -15 10 -15 6 0 10 -9 10 -20 0 -11 5 -20 10 -20 6 0
10 -9 10 -20 0 -11 5 -20 10 -20 6 0 10 -9 10 -20 0 -11 5 -20 10 -20 6 0 10
-11 10 -25 0 -14 5 -25 10 -25 6 0 10 -11 10 -25 0 -14 5 -25 10 -25 6 0 10
-9 10 -20 0 -11 5 -20 10 -20 6 0 10 -11 10 -25 0 -14 5 -25 10 -25 6 0 10
-11 10 -25 0 -14 5 -25 10 -25 6 0 10 -13 10 -30 0 -16 5 -30 10 -30 6 0 10
-13 10 -30 0 -16 5 -30 10 -30 6 0 10 -13 10 -30 0 -16 5 -30 10 -30 6 0 10
-16 10 -35 0 -19 5 -35 10 -35 6 0 10 -16 10 -35 0 -19 5 -35 10 -35 6 0 10
-18 10 -40 0 -22 5 -40 10 -40 6 0 10 -20 10 -45 0 -25 5 -45 10 -45 6 0 10
-20 10 -45 0 -25 5 -45 10 -45 6 0 10 -24 10 -54 0 -30 5 -58 10 -61 6 -3 10
-33 10 -66 0 -33 4 -59 10 -59 6 0 10 -32 10 -75 0 -43 4 -75 10 -75 6 0 10
-38 10 -95 0 -57 4 -95 10 -95 6 0 10 -66 10 -178 0 -112 4 -182 11 -189 16
-16 -5 -763 -21 -763 -6 0 -10 -45 -10 -105 0 -63 -4 -105 -10 -105 -6 0 -10
-31 -10 -74 0 -41 -4 -78 -10 -81 -5 -3 -10 -33 -10 -66 0 -33 -4 -59 -10 -59
-5 0 -10 -25 -10 -55 0 -30 -4 -55 -10 -55 -5 0 -10 -22 -10 -50 0 -27 -4 -50
-10 -50 -5 0 -10 -20 -10 -45 0 -25 -4 -45 -10 -45 -5 0 -10 -18 -10 -40 0
-22 -4 -40 -10 -40 -5 0 -10 -16 -10 -36 0 -21 -4 -33 -10 -29 -6 4 -10 -10
-10 -34 0 -23 -4 -41 -10 -41 -5 0 -10 -13 -10 -30 0 -16 -4 -30 -10 -30 -5 0
-10 -13 -10 -30 0 -16 -4 -30 -10 -30 -5 0 -10 -13 -10 -30 0 -16 -4 -30 -10
-30 -5 0 -10 -9 -10 -20 0 -11 -4 -20 -10 -20 -5 0 -10 -13 -10 -30 0 -16 -4
-30 -10 -30 -5 0 -10 -9 -10 -20 0 -11 -4 -20 -10 -20 -5 0 -10 -11 -10 -25 0
-14 -4 -25 -10 -25 -5 0 -10 -11 -10 -25 0 -14 -4 -25 -10 -25 -5 0 -10 -9
-10 -20 0 -11 -4 -20 -10 -20 -5 0 -10 -9 -10 -20 0 -11 -4 -20 -10 -20 -5 0
-10 -9 -10 -20 0 -11 -4 -20 -10 -20 -5 0 -10 -7 -10 -15 0 -8 -4 -15 -10 -15
-5 0 -10 -9 -10 -20 0 -11 -4 -20 -10 -20 -5 0 -10 -7 -10 -15 0 -8 -4 -15
-10 -15 -5 0 -10 -7 -10 -15 0 -9 -9 -25 -20 -37 -11 -12 -20 -28 -20 -35 0
-7 -4 -13 -10 -13 -5 0 -10 -7 -10 -15 0 -8 -4 -15 -10 -15 -5 0 -10 -6 -10
-13 0 -7 -9 -19 -20 -27 -11 -8 -20 -21 -20 -28 0 -8 -13 -27 -30 -42 -16 -15
-30 -33 -30 -39 0 -6 -4 -11 -10 -11 -5 0 -10 -5 -10 -10 0 -16 -256 -267
-279 -275 -12 -3 -21 -11 -21 -16 0 -5 320 -9 820 -9 l820 0 0 2800 0 2800
-820 0 c-451 0 -820 -3 -820 -6z"/>
<path d="M2780 5530 c-14 -4 -45 -8 -69 -9 -42 -1 -102 -14 -146 -31 -68 -27
-91 -34 -97 -32 -5 1 -8 -2 -8 -8 0 -6 -9 -10 -20 -10 -11 0 -20 -4 -20 -10 0
-5 -8 -10 -18 -10 -10 0 -24 -9 -32 -20 -8 -11 -20 -20 -28 -20 -7 0 -28 -15
-47 -32 -70 -66 -83 -77 -89 -71 -3 4 -6 1 -6 -6 0 -7 -13 -26 -30 -41 -16
-15 -30 -32 -30 -37 0 -5 -9 -15 -20 -23 -11 -8 -20 -20 -20 -27 0 -7 -4 -13
-10 -13 -5 0 -10 -7 -10 -15 0 -8 -4 -15 -10 -15 -5 0 -10 -7 -10 -16 0 -8 -4
-12 -10 -9 -5 3 -10 -3 -10 -14 0 -12 -4 -21 -8 -21 -5 0 -14 -16 -22 -35 -8
-19 -17 -35 -22 -35 -4 0 -8 -7 -8 -15 0 -8 -4 -15 -10 -15 -5 0 -10 -9 -10
-19 0 -11 -4 -23 -10 -26 -5 -3 -10 -15 -10 -26 0 -10 -4 -19 -10 -19 -5 0
-10 -11 -10 -25 0 -14 -4 -25 -10 -25 -5 0 -10 -9 -10 -20 0 -11 -4 -20 -10
-20 -5 0 -10 -13 -10 -30 0 -16 -4 -30 -10 -30 -5 0 -10 -13 -10 -30 0 -16 -4
-30 -10 -30 -5 0 -10 -13 -10 -30 0 -16 -4 -30 -10 -30 -5 0 -10 -13 -10 -30
0 -16 -4 -30 -10 -30 -5 0 -10 -15 -10 -34 0 -19 -4 -38 -10 -41 -5 -3 -10
-24 -10 -46 0 -24 -4 -38 -10 -34 -6 4 -10 -12 -10 -39 0 -25 -4 -46 -10 -46
-5 0 -10 -20 -10 -45 0 -25 -4 -45 -10 -45 -5 0 -10 -25 -10 -55 0 -30 -4 -55
-10 -55 -6 0 -10 -28 -10 -64 0 -36 -4 -68 -10 -71 -5 -3 -10 -39 -10 -80 0
-41 -4 -77 -10 -80 -6 -3 -10 -50 -10 -106 0 -59 -4 -99 -10 -99 -6 0 -10 -60
-10 -159 0 -96 -4 -162 -10 -166 -6 -4 -10 -162 -10 -441 0 -283 3 -434 10
-434 6 0 10 -22 10 -50 0 -27 2 -50 5 -50 3 0 511 506 1130 1125 1055 1055
1160 1165 1115 1165 -5 0 -10 14 -10 30 0 17 -4 30 -10 30 -5 0 -10 14 -10 30
0 17 -4 30 -10 30 -5 0 -10 11 -10 25 0 14 -4 25 -10 25 -5 0 -10 14 -10 30 0
17 -4 30 -10 30 -5 0 -10 9 -10 20 0 11 -4 20 -10 20 -5 0 -10 9 -10 20 0 11
-4 20 -10 20 -5 0 -10 9 -10 20 0 11 -4 20 -10 20 -5 0 -10 9 -10 20 0 11 -4
20 -10 20 -5 0 -10 9 -10 20 0 11 -4 20 -10 20 -5 0 -10 8 -10 18 0 10 -9 24
-20 32 -11 8 -20 21 -20 30 0 9 -9 22 -20 30 -11 8 -20 20 -20 27 0 7 -4 13
-10 13 -5 0 -10 5 -10 11 0 6 -18 28 -40 49 -22 21 -40 43 -40 49 0 6 -4 11
-9 11 -5 0 -33 23 -61 50 -28 28 -55 50 -60 50 -5 0 -15 6 -23 14 -20 21 -165
90 -217 105 -83 23 -114 29 -206 40 -103 12 -128 12 -164 1z"/>
<path d="M3863 3924 c-68 -68 -123 -126 -123 -129 0 -3 -40 -46 -90 -95 -49
-49 -90 -94 -90 -100 0 -6 20 -31 45 -56 l45 -45 80 81 c43 44 82 80 85 80 2
0 106 -101 230 -225 141 -141 230 -223 237 -219 7 4 35 31 63 58 l50 51 -207
207 c-115 114 -208 211 -208 214 0 4 -9 15 -21 25 -21 18 -21 18 61 99 l81 80
-51 50 c-28 28 -54 50 -58 49 -4 0 -62 -56 -129 -125z"/>
<path d="M3455 3459 c-27 -11 -54 -21 -60 -22 -10 -2 -27 -14 -50 -35 -8 -7
-15 -11 -15 -7 0 3 -25 -19 -55 -50 -30 -30 -55 -59 -55 -65 0 -5 -4 -10 -10
-10 -5 0 -10 -9 -10 -20 0 -11 -4 -20 -10 -20 -5 0 -10 -13 -10 -30 0 -16 -4
-30 -10 -30 -5 0 -10 -25 -10 -55 0 -30 5 -55 10 -55 6 0 10 -11 10 -25 0 -26
66 -101 108 -124 26 -14 159 -15 167 -1 3 6 15 10 26 10 10 0 19 5 19 10 0 6
9 10 20 10 11 0 20 5 20 10 0 6 9 10 20 10 11 0 20 4 20 9 0 5 14 14 30 21 17
7 30 16 30 21 0 5 9 9 20 9 11 0 20 3 20 8 0 4 16 12 37 19 40 12 83 0 83 -24
0 -7 5 -13 10 -13 6 0 10 -11 10 -25 0 -14 -4 -25 -10 -25 -5 0 -10 -11 -10
-25 0 -14 -4 -25 -10 -25 -5 0 -10 -6 -10 -12 0 -14 -54 -60 -66 -58 -4 1 -10
-3 -13 -8 -13 -20 -92 -52 -130 -52 -22 0 -46 -3 -55 -6 -17 -7 -22 -34 -6
-34 6 0 10 -27 10 -60 l0 -60 41 0 c50 0 162 37 189 62 10 10 24 18 30 18 13
0 120 106 120 120 0 5 5 10 10 10 6 0 10 7 10 15 0 8 5 15 10 15 6 0 10 9 10
20 0 11 5 20 10 20 6 0 10 14 10 30 0 17 5 30 10 30 6 0 10 18 10 39 0 22 -4
43 -10 46 -5 3 -10 19 -10 36 0 16 -4 29 -10 29 -5 0 -10 5 -10 10 0 6 -19 30
-42 53 -48 48 -110 72 -159 64 -76 -13 -99 -20 -99 -28 0 -5 -9 -9 -20 -9 -11
0 -20 -4 -20 -10 0 -5 -9 -10 -20 -10 -11 0 -20 -4 -20 -9 0 -5 -13 -14 -30
-21 -16 -7 -30 -16 -30 -21 0 -5 -9 -9 -20 -9 -11 0 -20 -4 -20 -10 0 -5 -9
-10 -20 -10 -11 0 -20 -4 -20 -10 0 -14 -74 -12 -88 2 -14 14 -16 98 -2 98 6
0 10 5 10 11 0 15 56 66 81 74 10 4 19 11 19 16 0 5 9 9 20 9 11 0 20 5 20 10
0 6 15 10 34 10 19 0 38 5 41 10 4 6 11 8 16 5 5 -4 9 18 9 50 0 35 -4 54 -10
50 -6 -4 -10 5 -10 19 0 22 -4 26 -27 25 -16 0 -50 -10 -78 -20z"/>
<path d="M2913 2964 c-29 -29 -53 -58 -53 -64 0 -6 81 -91 180 -190 99 -99
180 -186 180 -195 0 -8 5 -15 10 -15 6 0 10 -30 10 -70 0 -40 -4 -70 -10 -70
-5 0 -10 -5 -10 -11 0 -10 -22 -32 -74 -76 -9 -7 -22 -13 -31 -13 -8 0 -15 -4
-15 -9 0 -9 -69 -8 -108 2 -12 3 -44 28 -71 56 -27 27 -51 47 -55 44 -3 -4 -6
-1 -6 6 0 11 -56 68 -205 208 -75 70 -67 69 -124 14 -28 -27 -51 -56 -51 -63
1 -18 26 -49 33 -41 4 3 7 1 7 -5 0 -7 14 -25 30 -40 17 -16 30 -32 30 -35 0
-9 213 -219 239 -237 13 -8 33 -23 44 -33 12 -10 34 -21 49 -24 16 -3 28 -9
28 -14 0 -5 41 -9 90 -9 53 0 90 4 90 10 0 6 7 10 15 10 46 0 205 127 205 163
0 7 9 19 20 27 11 8 20 22 20 32 0 10 5 18 10 18 6 0 10 14 10 30 0 17 5 30
10 30 6 0 10 23 10 50 0 28 -4 50 -10 50 -5 0 -10 16 -10 35 0 19 -4 35 -10
35 -5 0 -10 9 -10 21 0 12 -13 34 -30 49 -16 15 -30 32 -31 37 0 4 -41 46 -90
93 -49 47 -127 122 -174 168 -47 45 -86 82 -87 81 -2 0 -27 -25 -55 -55z"/>
<path d="M3993 2444 c-40 -40 -73 -77 -74 -81 0 -5 -23 -28 -50 -53 -93 -84
-309 -305 -309 -316 0 -3 -7 -12 -15 -20 -8 -9 -15 -13 -15 -9 0 3 -25 -19
-55 -50 -30 -30 -55 -57 -55 -60 0 -3 -243 -248 -540 -545 -297 -297 -540
-545 -540 -552 0 -6 -3 -9 -6 -5 -6 6 -74 -57 -74 -68 0 -3 -41 -46 -90 -95
-55 -54 -90 -97 -90 -110 0 -11 5 -20 10 -20 6 0 10 -7 10 -15 0 -8 5 -15 10
-15 6 0 10 -5 10 -10 0 -13 146 -160 158 -160 5 0 23 -14 40 -30 18 -17 38
-30 46 -30 8 0 16 -4 18 -9 2 -5 10 -11 18 -13 8 -2 21 -9 28 -15 7 -7 25 -16
40 -20 15 -3 29 -9 32 -12 8 -10 75 -31 98 -31 12 0 22 -4 22 -9 0 -31 442
-31 475 0 5 5 17 9 27 9 27 0 98 24 98 32 0 5 9 8 20 8 11 0 20 5 20 10 0 6 9
10 20 10 11 0 20 5 20 10 0 6 8 10 18 10 10 0 24 9 32 20 8 11 21 20 28 20 8
0 26 13 42 30 15 16 29 27 32 25 9 -9 108 96 108 116 0 5 5 7 10 4 6 -3 10 0
10 7 0 8 9 20 20 28 11 8 20 20 20 27 0 7 5 13 10 13 6 0 10 7 10 15 0 8 5 15
10 15 6 0 10 7 10 15 0 8 5 15 10 15 6 0 10 7 10 15 0 8 5 15 10 15 6 0 10 9
10 20 0 11 5 20 10 20 6 0 10 7 10 15 0 8 5 15 10 15 6 0 10 9 10 20 0 11 5
20 10 20 6 0 10 9 10 20 0 11 5 20 10 20 6 0 10 9 10 19 0 11 5 23 10 26 6 3
10 15 10 26 0 10 5 19 10 19 6 0 10 11 10 25 0 14 5 25 10 25 6 0 10 11 10 25
0 14 5 25 10 25 6 0 10 14 10 30 0 17 5 30 10 30 6 0 10 14 10 30 0 17 5 30
10 30 6 0 10 15 10 34 0 19 5 38 10 41 6 3 10 19 10 35 0 16 5 32 10 35 6 3
10 24 10 46 0 21 5 39 10 39 6 0 10 20 10 45 0 25 5 45 10 45 6 0 10 23 10 50
0 28 5 50 10 50 6 0 10 26 10 59 0 33 5 63 10 66 6 3 10 37 10 76 0 39 4 69
10 69 6 0 10 30 10 70 0 40 4 70 10 70 6 0 10 45 10 115 0 70 4 115 10 115 6
0 10 73 10 200 0 127 4 200 10 200 6 0 10 9 10 20 0 37 -34 20 -107 -56z"/>
<path d="M2300 2311 c0 -5 -13 -11 -29 -14 -21 -5 -78 -54 -191 -167 l-160
-160 275 -275 c151 -151 280 -275 285 -275 6 0 35 25 65 55 31 30 51 55 45 55
-5 0 -10 5 -10 11 0 13 -98 109 -111 109 -5 0 -9 5 -9 11 0 15 -26 39 -34 32
-3 -4 -6 1 -6 10 0 8 -5 17 -12 19 -16 6 76 98 97 98 8 0 15 -4 15 -10 0 -5
15 -10 34 -10 19 0 38 -4 41 -10 3 -5 19 -10 36 -10 16 0 29 -4 29 -9 0 -8 22
-14 112 -27 34 -6 40 -2 93 51 63 63 66 85 10 85 -19 0 -35 5 -35 10 0 6 -15
10 -34 10 -19 0 -38 5 -41 10 -3 6 -16 10 -27 10 -12 0 -35 4 -52 10 -17 5
-43 12 -58 15 -26 5 -41 35 -18 35 6 0 10 37 10 90 0 53 -4 90 -10 90 -5 0
-10 7 -10 15 0 9 -25 40 -55 70 -30 31 -55 53 -55 50 0 -3 -13 1 -30 10 -31
16 -160 21 -160 6z m80 -161 c0 -5 7 -10 16 -10 18 0 44 -23 44 -39 0 -6 5
-11 10 -11 6 0 10 -18 10 -40 0 -35 -7 -46 -60 -100 -33 -33 -60 -65 -60 -71
0 -6 -4 -7 -10 -4 -5 3 -10 0 -10 -8 0 -8 -7 -18 -15 -21 -11 -4 -41 19 -91
69 l-74 75 72 73 c68 67 109 93 151 96 9 1 17 -3 17 -9z"/>
<path d="M1733 1787 c-51 -51 -147 -144 -212 -207 -66 -63 -120 -123 -120
-133 -1 -10 19 -38 44 -63 l45 -45 80 81 c43 44 81 80 84 80 3 0 41 -35 85
-77 44 -43 103 -98 130 -123 28 -25 50 -49 50 -53 2 -15 182 -187 197 -187 19
0 104 85 104 104 0 9 -64 80 -142 160 -79 80 -178 181 -221 226 l-77 81 80 79
81 80 -45 45 c-25 25 -51 45 -58 44 -7 0 -55 -42 -105 -92z"/>
</g>
</svg>
